<svg xmlns="http://www.w3.org/2000/svg" viewBox="33 39 196 26" fill="none">
<path d="M140.48 64C147.056 64 151.43 59.3142 151.936 53.0157H153.049V59.909C153.049 62.6599 154.996 63.7273 157.55 63.7273C159.598 63.7273 161.344 62.4882 162.178 61.0235V63.5297H168.272V60.3299H166.399V53.0157H169.382V58.67C169.382 62.0415 170.749 63.7273 173.91 63.7273C175.73 63.7273 176.718 62.8597 177.426 61.8675V63.5297H180.258V61.7194C181.725 63.2547 183.167 63.7273 185.315 63.7273C187.289 63.7273 188.908 63.0572 189.764 61.8182V63.5297H198.997V61.4726C199.958 62.8856 201.652 63.7037 203.85 63.7037C205.824 63.7037 207.088 62.8856 208.076 61.3973V63.5297H214.7V61.4208C216.017 63.1301 217.964 63.826 220.565 63.826C224.156 63.826 227.494 62.3871 228 58.4208H223.827C223.498 60.1324 222.688 60.9506 220.844 60.9506C219.299 60.9506 218.213 60.0314 218.136 57.4051H227.873V56.8339C227.873 52.3715 225.165 49.5713 220.844 49.5713C216.822 49.5713 213.561 52.2986 213.561 56.6857C213.561 58.0494 213.765 59.3142 214.244 60.304H212.323V45.1324H205.57V48.4052H208.074V51.7531C207.259 50.5188 205.856 49.7806 204.354 49.7947C200.208 49.7947 197.982 52.67 197.982 56.587C197.966 57.8589 198.17 59.1262 198.587 60.3322H196.337V49.7947H186.474V51.5039C185.69 50.413 184.553 49.6701 182.579 49.6701C180.203 49.6701 178.685 50.3895 177.953 51.3558V49.7453H173.704V46.1246H170.341C170.341 48.5791 169.682 49.7429 166.373 49.7429H159.85V53.0885H162.149V57.377C162.149 59.0886 161.265 60.4005 159.368 60.4005C157.749 60.4005 157.32 59.3331 157.32 57.9224V49.7406H151.732C150.722 44.3895 146.801 40 140.48 40C133.197 40 129 45.2312 129 52.1222C129 58.8182 133.578 64 140.48 64ZM184.455 61.0987C182.459 61.0987 181.546 60.2053 180.61 58.717H175.831C175.905 60.2312 175.881 61.0729 174.843 61.0729C173.804 61.0729 173.706 60.0548 173.706 59.2366V53.0157H177.55C177.529 53.239 177.522 53.4623 177.526 53.6857C177.526 59.9584 186.299 57.431 186.299 60.0078C186.301 60.8989 185.239 61.0987 184.455 61.0987ZM190.22 60.304C190.272 59.9584 190.299 59.6105 190.296 59.2625C190.296 53.2884 181.421 55.7171 181.421 53.2625C181.421 52.4443 182.51 52.2962 183.495 52.2962C184.886 52.2962 185.694 52.7171 186.328 54.0055H189.97V53.0133H192.474V60.3017H190.22V60.304ZM141.113 60.4028C137.674 60.4263 135.573 55.0493 135.573 50.3119C135.573 47.5847 136.636 43.4467 139.796 43.4467C143.996 43.4467 145.387 50.0909 145.387 53.3142C145.387 56.3636 144.377 60.4028 141.113 60.4028ZM205.392 60.5274C203.091 60.5274 202.584 58.2704 202.584 56.4365C202.584 54.652 203.292 52.6936 205.47 52.6936C207.189 52.6936 208.076 54.3041 208.076 55.9169V57.2805C208.074 58.8675 207.239 60.5274 205.392 60.5274ZM218.213 55.1998C218.515 53.192 219.578 52.4232 220.868 52.4232C222.611 52.4232 223.245 53.4412 223.369 55.1998H218.213ZM192.342 48.7249H196.339V45.1301H192.342V48.7249Z" fill="black"/>
<path d="M33 57.4115V49.6406H35.9134C36.4436 49.6406 36.9141 49.7368 37.3234 49.9277C37.7327 50.1186 38.0517 50.3977 38.2822 50.7617C38.5126 51.1274 38.6286 51.5701 38.6286 52.0914C38.6286 52.6126 38.511 53.0457 38.2773 53.4114C38.0437 53.7771 37.723 54.0561 37.3186 54.2502C36.9125 54.4443 36.4452 54.5421 35.915 54.5421H34.4277V57.4099H33.0032L33 57.4115ZM34.4245 53.2911H35.9327C36.1906 53.2911 36.4146 53.2414 36.6031 53.1403C36.7916 53.0393 36.9383 52.8981 37.043 52.7185C37.1477 52.5372 37.2009 52.3287 37.2009 52.093C37.2009 51.8572 37.1477 51.6391 37.043 51.4626C36.9383 51.2862 36.7916 51.1467 36.6031 51.0456C36.4146 50.9446 36.1906 50.8949 35.9327 50.8949H34.4245V53.2943V53.2911Z" fill="#222222"/>
<path d="M45.7322 57.5367C45.1602 57.5367 44.6252 57.4356 44.1289 57.2335C43.6326 57.0315 43.1991 56.7508 42.8301 56.3883C42.4595 56.0274 42.171 55.6008 41.9664 55.11C41.7601 54.6192 41.657 54.0899 41.657 53.5189C41.657 52.9479 41.7585 52.4107 41.9615 51.9231C42.1646 51.4371 42.4498 51.012 42.8204 50.6512C43.191 50.2903 43.6229 50.0096 44.1192 49.8123C44.6155 49.6135 45.1537 49.5156 45.7322 49.5156C46.3107 49.5156 46.8505 49.6167 47.3452 49.8188C47.8415 50.0209 48.275 50.2999 48.644 50.6576C49.0146 51.0153 49.3031 51.4387 49.5093 51.9247C49.7156 52.4123 49.8187 52.9431 49.8187 53.5205C49.8187 54.0979 49.714 54.6208 49.5045 55.1116C49.295 55.6024 49.005 56.0274 48.6343 56.3899C48.2637 56.7508 47.8335 57.0331 47.3404 57.2352C46.8473 57.4372 46.3123 57.5383 45.7322 57.5383V57.5367ZM45.7322 56.2439C46.1157 56.2439 46.4686 56.1766 46.7909 56.0403C47.1116 55.9055 47.3936 55.7147 47.6337 55.4725C47.8754 55.2287 48.0591 54.94 48.1896 54.6064C48.3185 54.2728 48.383 53.9119 48.383 53.5221C48.383 53.1324 48.3185 52.7731 48.1896 52.4427C48.0607 52.1123 47.8754 51.8236 47.6337 51.5766C47.392 51.3296 47.1116 51.1404 46.7909 51.0088C46.4702 50.8773 46.1173 50.81 45.7322 50.81C45.3471 50.81 45.0055 50.8757 44.6848 51.0088C44.3625 51.1404 44.0821 51.3312 43.8404 51.5766C43.5987 51.8236 43.4118 52.1123 43.2797 52.4427C43.1475 52.7731 43.0798 53.1324 43.0798 53.5221C43.0798 53.9119 43.1459 54.2728 43.2797 54.6064C43.4118 54.94 43.5987 55.2287 43.8404 55.4725C44.0821 55.7163 44.3625 55.9055 44.6848 56.0403C45.0055 56.1766 45.3551 56.2439 45.7322 56.2439Z" fill="#222222"/>
<path d="M54.4325 57.4115L52.3361 49.6406H53.8653L55.5105 56.2631H55.1125L56.8319 49.6406H58.3095L60.0176 56.2631H59.6196L61.2648 49.6406H62.794L60.6992 57.4115H59.0653L57.3362 50.9654H57.7971L56.0681 57.4115H54.4341H54.4325Z" fill="#222222"/>
<path d="M65.7588 57.4115V49.6406H70.9459V50.8916H67.1833V52.8837H70.7348V54.1347H67.1833V56.1588H70.9459V57.4099H65.7588V57.4115Z" fill="#222222"/>
<path d="M74.0861 57.4115V49.6406H76.9882C77.5183 49.6406 77.9889 49.7368 78.3982 49.9277C78.8075 50.1186 79.1265 50.3977 79.3569 50.7617C79.5874 51.1274 79.7034 51.5701 79.7034 52.0914C79.7034 52.6126 79.5761 53.0826 79.3215 53.4579C79.0669 53.8332 78.7221 54.1123 78.2886 54.2919L80.0805 57.4099H78.4675L76.5499 54L77.4716 54.5421H75.5121V57.4099H74.0877L74.0861 57.4115ZM75.5105 53.2911H77.0091C77.267 53.2911 77.4909 53.2414 77.6795 53.1403C77.868 53.0393 78.0147 52.8981 78.1194 52.7185C78.2241 52.5372 78.2757 52.3287 78.2757 52.093C78.2757 51.8572 78.2225 51.6391 78.1194 51.4626C78.0147 51.2846 77.868 51.1467 77.6795 51.0456C77.4909 50.9446 77.267 50.8949 77.0091 50.8949H75.5105V53.2943V53.2911Z" fill="#222222"/>
<path d="M83.1104 57.4115V49.6406H88.2974V50.8916H84.5348V52.8837H88.0864V54.1347H84.5348V56.1588H88.2974V57.4099H83.1104V57.4115Z" fill="#222222"/>
<path d="M91.4388 57.4115V49.6406H93.9849C94.8099 49.6406 95.527 49.8058 96.1377 50.1362C96.7484 50.4666 97.2222 50.9221 97.5573 51.5027C97.8925 52.0833 98.0601 52.7554 98.0601 53.5204C98.0601 54.2855 97.8925 54.9511 97.5573 55.5381C97.2222 56.1252 96.7484 56.5855 96.1377 56.9143C95.527 57.2447 94.8083 57.4099 93.9849 57.4099H91.4388V57.4115ZM92.8633 56.1604H94.0155C94.5456 56.1604 95.0049 56.0514 95.3932 55.8316C95.7816 55.6119 96.0829 55.3072 96.2988 54.9142C96.5147 54.5213 96.6243 54.0577 96.6243 53.522C96.6243 52.9863 96.5164 52.5132 96.2988 52.1251C96.0829 51.7353 95.78 51.4338 95.3932 51.2172C95.0065 51.0007 94.5456 50.8933 94.0155 50.8933H92.8633V56.1604Z" fill="#222222"/>
<path d="M105.251 57.4115V49.6406H108.541C109.059 49.6406 109.5 49.7288 109.868 49.9069C110.235 50.0849 110.517 50.3351 110.717 50.6575C110.917 50.9815 111.015 51.3728 111.015 51.8315C111.015 52.186 110.918 52.518 110.727 52.8276C110.535 53.1371 110.229 53.3921 109.81 53.5942V52.9366C110.193 53.0826 110.498 53.2638 110.722 53.4787C110.946 53.6936 111.102 53.9342 111.194 54.1989C111.284 54.4635 111.331 54.741 111.331 55.0329C111.331 55.7771 111.084 56.3593 110.593 56.7795C110.1 57.1998 109.418 57.4099 108.545 57.4099H105.254L105.251 57.4115ZM106.675 52.6559H108.614C108.907 52.6559 109.141 52.5709 109.317 52.4009C109.491 52.2309 109.579 52.0096 109.579 51.7385C109.579 51.4675 109.492 51.2525 109.317 51.0921C109.143 50.9317 108.907 50.8516 108.614 50.8516H106.675V52.6559ZM106.675 56.1604H108.688C109.059 56.1604 109.354 56.0578 109.573 55.8525C109.794 55.6472 109.903 55.3745 109.903 55.0345C109.903 54.6945 109.794 54.4186 109.573 54.2101C109.352 54.0016 109.057 53.8973 108.688 53.8973H106.675V56.1604Z" fill="#222222"/>
<path d="M116.159 57.4115V53.9695L113.529 49.6406H115.153L117.166 53.02H116.589L118.59 49.6406H120.215L117.594 53.9583V57.4099H116.159V57.4115Z" fill="#222222"/>
</svg>
